<mxfile host="app.diagrams.net" modified="2023-10-13T20:04:40.966Z" agent="Mozilla/5.0 (Windows NT 10.0; Win64; x64) AppleWebKit/537.36 (KHTML, like Gecko) Chrome/104.0.0.0 Safari/537.36" etag="Lk6tSdj_zD7ICaMn0A-T" version="22.0.4" type="github">
  <diagram name="PÃ¡gina-1" id="V0E5Hjxn2kqONIKEsuwN">
    <mxGraphModel dx="880" dy="484" grid="1" gridSize="10" guides="1" tooltips="1" connect="1" arrows="1" fold="1" page="1" pageScale="1" pageWidth="827" pageHeight="1169" math="0" shadow="0">
      <root>
        <mxCell id="0" />
        <mxCell id="1" parent="0" />
        <mxCell id="7Z-id_Be0-Z_lfdTctTM-1" style="edgeStyle=orthogonalEdgeStyle;rounded=0;orthogonalLoop=1;jettySize=auto;html=1;exitX=0.5;exitY=1;exitDx=0;exitDy=0;exitPerimeter=0;" edge="1" parent="1" source="7Z-id_Be0-Z_lfdTctTM-2" target="7Z-id_Be0-Z_lfdTctTM-5">
          <mxGeometry relative="1" as="geometry" />
        </mxCell>
        <mxCell id="7Z-id_Be0-Z_lfdTctTM-2" value="Inicio" style="strokeWidth=2;html=1;shape=mxgraph.flowchart.terminator;whiteSpace=wrap;fontSize=20;" vertex="1" parent="1">
          <mxGeometry x="340" y="80" width="100" height="60" as="geometry" />
        </mxCell>
        <mxCell id="7Z-id_Be0-Z_lfdTctTM-38" style="edgeStyle=orthogonalEdgeStyle;rounded=0;orthogonalLoop=1;jettySize=auto;html=1;exitX=0;exitY=0.5;exitDx=0;exitDy=0;entryX=0.5;entryY=0;entryDx=0;entryDy=0;" edge="1" parent="1" source="7Z-id_Be0-Z_lfdTctTM-5" target="7Z-id_Be0-Z_lfdTctTM-31">
          <mxGeometry relative="1" as="geometry">
            <Array as="points">
              <mxPoint x="320" y="190" />
              <mxPoint x="320" y="370" />
              <mxPoint x="390" y="370" />
            </Array>
          </mxGeometry>
        </mxCell>
        <mxCell id="7Z-id_Be0-Z_lfdTctTM-5" value="4" style="verticalLabelPosition=middle;verticalAlign=middle;html=1;shape=hexagon;perimeter=hexagonPerimeter2;arcSize=6;size=0.27;labelPosition=center;align=center;fontSize=16;" vertex="1" parent="1">
          <mxGeometry x="340" y="160" width="100" height="60" as="geometry" />
        </mxCell>
        <mxCell id="7Z-id_Be0-Z_lfdTctTM-30" style="edgeStyle=orthogonalEdgeStyle;rounded=0;orthogonalLoop=1;jettySize=auto;html=1;exitX=0.5;exitY=1;exitDx=0;exitDy=0;entryX=1;entryY=0.5;entryDx=0;entryDy=0;" edge="1" parent="1" source="7Z-id_Be0-Z_lfdTctTM-7" target="7Z-id_Be0-Z_lfdTctTM-5">
          <mxGeometry relative="1" as="geometry">
            <Array as="points">
              <mxPoint x="390" y="360" />
              <mxPoint x="460" y="360" />
              <mxPoint x="460" y="190" />
            </Array>
          </mxGeometry>
        </mxCell>
        <mxCell id="7Z-id_Be0-Z_lfdTctTM-7" value="move();" style="rounded=1;whiteSpace=wrap;html=1;absoluteArcSize=1;arcSize=14;strokeWidth=2;" vertex="1" parent="1">
          <mxGeometry x="340" y="300" width="100" height="40" as="geometry" />
        </mxCell>
        <mxCell id="7Z-id_Be0-Z_lfdTctTM-29" value="putbeeper();" style="rounded=1;whiteSpace=wrap;html=1;absoluteArcSize=1;arcSize=14;strokeWidth=2;" vertex="1" parent="1">
          <mxGeometry x="340" y="240" width="100" height="40" as="geometry" />
        </mxCell>
        <mxCell id="7Z-id_Be0-Z_lfdTctTM-39" style="edgeStyle=orthogonalEdgeStyle;rounded=0;orthogonalLoop=1;jettySize=auto;html=1;exitX=0.5;exitY=1;exitDx=0;exitDy=0;entryX=0.5;entryY=0;entryDx=0;entryDy=0;" edge="1" parent="1" source="7Z-id_Be0-Z_lfdTctTM-31" target="7Z-id_Be0-Z_lfdTctTM-32">
          <mxGeometry relative="1" as="geometry" />
        </mxCell>
        <mxCell id="7Z-id_Be0-Z_lfdTctTM-31" value="putbeeper();" style="rounded=1;whiteSpace=wrap;html=1;absoluteArcSize=1;arcSize=14;strokeWidth=2;" vertex="1" parent="1">
          <mxGeometry x="340" y="380" width="100" height="40" as="geometry" />
        </mxCell>
        <mxCell id="7Z-id_Be0-Z_lfdTctTM-40" style="edgeStyle=orthogonalEdgeStyle;rounded=0;orthogonalLoop=1;jettySize=auto;html=1;exitX=0.5;exitY=1;exitDx=0;exitDy=0;" edge="1" parent="1" source="7Z-id_Be0-Z_lfdTctTM-32" target="7Z-id_Be0-Z_lfdTctTM-35">
          <mxGeometry relative="1" as="geometry" />
        </mxCell>
        <mxCell id="7Z-id_Be0-Z_lfdTctTM-32" value="turnleft();" style="rounded=1;whiteSpace=wrap;html=1;absoluteArcSize=1;arcSize=14;strokeWidth=2;" vertex="1" parent="1">
          <mxGeometry x="340" y="440" width="100" height="40" as="geometry" />
        </mxCell>
        <mxCell id="7Z-id_Be0-Z_lfdTctTM-33" style="edgeStyle=orthogonalEdgeStyle;rounded=0;orthogonalLoop=1;jettySize=auto;html=1;exitX=0.5;exitY=1;exitDx=0;exitDy=0;" edge="1" parent="1" source="7Z-id_Be0-Z_lfdTctTM-35" target="7Z-id_Be0-Z_lfdTctTM-37">
          <mxGeometry relative="1" as="geometry" />
        </mxCell>
        <mxCell id="7Z-id_Be0-Z_lfdTctTM-47" style="edgeStyle=orthogonalEdgeStyle;rounded=0;orthogonalLoop=1;jettySize=auto;html=1;exitX=0;exitY=0.5;exitDx=0;exitDy=0;entryX=0.5;entryY=0;entryDx=0;entryDy=0;" edge="1" parent="1" source="7Z-id_Be0-Z_lfdTctTM-35" target="7Z-id_Be0-Z_lfdTctTM-41">
          <mxGeometry relative="1" as="geometry">
            <Array as="points">
              <mxPoint x="320" y="530" />
              <mxPoint x="320" y="650" />
              <mxPoint x="390" y="650" />
            </Array>
          </mxGeometry>
        </mxCell>
        <mxCell id="7Z-id_Be0-Z_lfdTctTM-35" value="2" style="verticalLabelPosition=middle;verticalAlign=middle;html=1;shape=hexagon;perimeter=hexagonPerimeter2;arcSize=6;size=0.27;labelPosition=center;align=center;fontSize=16;" vertex="1" parent="1">
          <mxGeometry x="340" y="500" width="100" height="60" as="geometry" />
        </mxCell>
        <mxCell id="7Z-id_Be0-Z_lfdTctTM-36" style="edgeStyle=orthogonalEdgeStyle;rounded=0;orthogonalLoop=1;jettySize=auto;html=1;exitX=0.5;exitY=1;exitDx=0;exitDy=0;entryX=1;entryY=0.5;entryDx=0;entryDy=0;" edge="1" parent="1" source="7Z-id_Be0-Z_lfdTctTM-37" target="7Z-id_Be0-Z_lfdTctTM-35">
          <mxGeometry relative="1" as="geometry">
            <Array as="points">
              <mxPoint x="390" y="640" />
              <mxPoint x="460" y="640" />
              <mxPoint x="460" y="530" />
            </Array>
          </mxGeometry>
        </mxCell>
        <mxCell id="7Z-id_Be0-Z_lfdTctTM-37" value="move();" style="rounded=1;whiteSpace=wrap;html=1;absoluteArcSize=1;arcSize=14;strokeWidth=2;" vertex="1" parent="1">
          <mxGeometry x="340" y="580" width="100" height="40" as="geometry" />
        </mxCell>
        <mxCell id="7Z-id_Be0-Z_lfdTctTM-46" style="edgeStyle=orthogonalEdgeStyle;rounded=0;orthogonalLoop=1;jettySize=auto;html=1;exitX=0.5;exitY=1;exitDx=0;exitDy=0;" edge="1" parent="1" source="7Z-id_Be0-Z_lfdTctTM-41" target="7Z-id_Be0-Z_lfdTctTM-43">
          <mxGeometry relative="1" as="geometry" />
        </mxCell>
        <mxCell id="7Z-id_Be0-Z_lfdTctTM-41" value="turnleft();" style="rounded=1;whiteSpace=wrap;html=1;absoluteArcSize=1;arcSize=14;strokeWidth=2;" vertex="1" parent="1">
          <mxGeometry x="340" y="660" width="100" height="40" as="geometry" />
        </mxCell>
        <mxCell id="7Z-id_Be0-Z_lfdTctTM-42" style="edgeStyle=orthogonalEdgeStyle;rounded=0;orthogonalLoop=1;jettySize=auto;html=1;exitX=0.5;exitY=1;exitDx=0;exitDy=0;" edge="1" parent="1" source="7Z-id_Be0-Z_lfdTctTM-43" target="7Z-id_Be0-Z_lfdTctTM-45">
          <mxGeometry relative="1" as="geometry" />
        </mxCell>
        <mxCell id="7Z-id_Be0-Z_lfdTctTM-54" style="edgeStyle=orthogonalEdgeStyle;rounded=0;orthogonalLoop=1;jettySize=auto;html=1;exitX=0;exitY=0.5;exitDx=0;exitDy=0;" edge="1" parent="1" source="7Z-id_Be0-Z_lfdTctTM-43" target="7Z-id_Be0-Z_lfdTctTM-48">
          <mxGeometry relative="1" as="geometry">
            <Array as="points">
              <mxPoint x="320" y="750" />
              <mxPoint x="320" y="870" />
              <mxPoint x="390" y="870" />
            </Array>
          </mxGeometry>
        </mxCell>
        <mxCell id="7Z-id_Be0-Z_lfdTctTM-43" value="4" style="verticalLabelPosition=middle;verticalAlign=middle;html=1;shape=hexagon;perimeter=hexagonPerimeter2;arcSize=6;size=0.27;labelPosition=center;align=center;fontSize=16;" vertex="1" parent="1">
          <mxGeometry x="340" y="720" width="100" height="60" as="geometry" />
        </mxCell>
        <mxCell id="7Z-id_Be0-Z_lfdTctTM-44" style="edgeStyle=orthogonalEdgeStyle;rounded=0;orthogonalLoop=1;jettySize=auto;html=1;exitX=0.5;exitY=1;exitDx=0;exitDy=0;entryX=1;entryY=0.5;entryDx=0;entryDy=0;" edge="1" parent="1" source="7Z-id_Be0-Z_lfdTctTM-45" target="7Z-id_Be0-Z_lfdTctTM-43">
          <mxGeometry relative="1" as="geometry">
            <Array as="points">
              <mxPoint x="390" y="860" />
              <mxPoint x="460" y="860" />
              <mxPoint x="460" y="750" />
            </Array>
          </mxGeometry>
        </mxCell>
        <mxCell id="7Z-id_Be0-Z_lfdTctTM-45" value="move();" style="rounded=1;whiteSpace=wrap;html=1;absoluteArcSize=1;arcSize=14;strokeWidth=2;" vertex="1" parent="1">
          <mxGeometry x="340" y="800" width="100" height="40" as="geometry" />
        </mxCell>
        <mxCell id="7Z-id_Be0-Z_lfdTctTM-55" style="edgeStyle=orthogonalEdgeStyle;rounded=0;orthogonalLoop=1;jettySize=auto;html=1;exitX=0.5;exitY=1;exitDx=0;exitDy=0;" edge="1" parent="1" source="7Z-id_Be0-Z_lfdTctTM-48" target="7Z-id_Be0-Z_lfdTctTM-50">
          <mxGeometry relative="1" as="geometry" />
        </mxCell>
        <mxCell id="7Z-id_Be0-Z_lfdTctTM-48" value="turnleft();" style="rounded=1;whiteSpace=wrap;html=1;absoluteArcSize=1;arcSize=14;strokeWidth=2;" vertex="1" parent="1">
          <mxGeometry x="340" y="880" width="100" height="40" as="geometry" />
        </mxCell>
        <mxCell id="7Z-id_Be0-Z_lfdTctTM-64" style="edgeStyle=orthogonalEdgeStyle;rounded=0;orthogonalLoop=1;jettySize=auto;html=1;exitX=0;exitY=0.5;exitDx=0;exitDy=0;" edge="1" parent="1" source="7Z-id_Be0-Z_lfdTctTM-50" target="7Z-id_Be0-Z_lfdTctTM-57">
          <mxGeometry relative="1" as="geometry">
            <Array as="points">
              <mxPoint x="320" y="970" />
              <mxPoint x="320" y="1150" />
              <mxPoint x="390" y="1150" />
            </Array>
          </mxGeometry>
        </mxCell>
        <mxCell id="7Z-id_Be0-Z_lfdTctTM-50" value="2" style="verticalLabelPosition=middle;verticalAlign=middle;html=1;shape=hexagon;perimeter=hexagonPerimeter2;arcSize=6;size=0.27;labelPosition=center;align=center;fontSize=16;" vertex="1" parent="1">
          <mxGeometry x="340" y="940" width="100" height="60" as="geometry" />
        </mxCell>
        <mxCell id="7Z-id_Be0-Z_lfdTctTM-51" style="edgeStyle=orthogonalEdgeStyle;rounded=0;orthogonalLoop=1;jettySize=auto;html=1;exitX=0.5;exitY=1;exitDx=0;exitDy=0;entryX=1;entryY=0.5;entryDx=0;entryDy=0;" edge="1" parent="1" source="7Z-id_Be0-Z_lfdTctTM-52" target="7Z-id_Be0-Z_lfdTctTM-50">
          <mxGeometry relative="1" as="geometry">
            <Array as="points">
              <mxPoint x="390" y="1140" />
              <mxPoint x="460" y="1140" />
              <mxPoint x="460" y="970" />
            </Array>
          </mxGeometry>
        </mxCell>
        <mxCell id="7Z-id_Be0-Z_lfdTctTM-52" value="move();" style="rounded=1;whiteSpace=wrap;html=1;absoluteArcSize=1;arcSize=14;strokeWidth=2;" vertex="1" parent="1">
          <mxGeometry x="340" y="1080" width="100" height="40" as="geometry" />
        </mxCell>
        <mxCell id="7Z-id_Be0-Z_lfdTctTM-53" value="putbeeper();" style="rounded=1;whiteSpace=wrap;html=1;absoluteArcSize=1;arcSize=14;strokeWidth=2;" vertex="1" parent="1">
          <mxGeometry x="340" y="1020" width="100" height="40" as="geometry" />
        </mxCell>
        <mxCell id="7Z-id_Be0-Z_lfdTctTM-56" style="edgeStyle=orthogonalEdgeStyle;rounded=0;orthogonalLoop=1;jettySize=auto;html=1;exitX=0.5;exitY=1;exitDx=0;exitDy=0;" edge="1" parent="1" source="7Z-id_Be0-Z_lfdTctTM-57" target="7Z-id_Be0-Z_lfdTctTM-58">
          <mxGeometry relative="1" as="geometry" />
        </mxCell>
        <mxCell id="7Z-id_Be0-Z_lfdTctTM-57" value="move();" style="rounded=1;whiteSpace=wrap;html=1;absoluteArcSize=1;arcSize=14;strokeWidth=2;" vertex="1" parent="1">
          <mxGeometry x="340" y="1160" width="100" height="40" as="geometry" />
        </mxCell>
        <mxCell id="7Z-id_Be0-Z_lfdTctTM-62" style="edgeStyle=orthogonalEdgeStyle;rounded=0;orthogonalLoop=1;jettySize=auto;html=1;exitX=0.5;exitY=1;exitDx=0;exitDy=0;entryX=0.5;entryY=0;entryDx=0;entryDy=0;" edge="1" parent="1" source="7Z-id_Be0-Z_lfdTctTM-58" target="7Z-id_Be0-Z_lfdTctTM-61">
          <mxGeometry relative="1" as="geometry" />
        </mxCell>
        <mxCell id="7Z-id_Be0-Z_lfdTctTM-66" style="edgeStyle=orthogonalEdgeStyle;rounded=0;orthogonalLoop=1;jettySize=auto;html=1;exitX=0;exitY=0.5;exitDx=0;exitDy=0;" edge="1" parent="1" source="7Z-id_Be0-Z_lfdTctTM-58" target="7Z-id_Be0-Z_lfdTctTM-65">
          <mxGeometry relative="1" as="geometry">
            <Array as="points">
              <mxPoint x="320" y="1250" />
              <mxPoint x="320" y="1430" />
              <mxPoint x="390" y="1430" />
            </Array>
          </mxGeometry>
        </mxCell>
        <mxCell id="7Z-id_Be0-Z_lfdTctTM-58" value="2" style="verticalLabelPosition=middle;verticalAlign=middle;html=1;shape=hexagon;perimeter=hexagonPerimeter2;arcSize=6;size=0.27;labelPosition=center;align=center;fontSize=16;" vertex="1" parent="1">
          <mxGeometry x="340" y="1220" width="100" height="60" as="geometry" />
        </mxCell>
        <mxCell id="7Z-id_Be0-Z_lfdTctTM-59" style="edgeStyle=orthogonalEdgeStyle;rounded=0;orthogonalLoop=1;jettySize=auto;html=1;exitX=0.5;exitY=1;exitDx=0;exitDy=0;entryX=1;entryY=0.5;entryDx=0;entryDy=0;" edge="1" parent="1" source="7Z-id_Be0-Z_lfdTctTM-60" target="7Z-id_Be0-Z_lfdTctTM-58">
          <mxGeometry relative="1" as="geometry">
            <Array as="points">
              <mxPoint x="390" y="1420" />
              <mxPoint x="460" y="1420" />
              <mxPoint x="460" y="1250" />
            </Array>
          </mxGeometry>
        </mxCell>
        <mxCell id="7Z-id_Be0-Z_lfdTctTM-60" value="move();" style="rounded=1;whiteSpace=wrap;html=1;absoluteArcSize=1;arcSize=14;strokeWidth=2;" vertex="1" parent="1">
          <mxGeometry x="340" y="1360" width="100" height="40" as="geometry" />
        </mxCell>
        <mxCell id="7Z-id_Be0-Z_lfdTctTM-63" style="edgeStyle=orthogonalEdgeStyle;rounded=0;orthogonalLoop=1;jettySize=auto;html=1;exitX=0.5;exitY=1;exitDx=0;exitDy=0;" edge="1" parent="1" source="7Z-id_Be0-Z_lfdTctTM-61" target="7Z-id_Be0-Z_lfdTctTM-60">
          <mxGeometry relative="1" as="geometry" />
        </mxCell>
        <mxCell id="7Z-id_Be0-Z_lfdTctTM-61" value="putbeeper();" style="rounded=1;whiteSpace=wrap;html=1;absoluteArcSize=1;arcSize=14;strokeWidth=2;" vertex="1" parent="1">
          <mxGeometry x="340" y="1300" width="100" height="40" as="geometry" />
        </mxCell>
        <mxCell id="7Z-id_Be0-Z_lfdTctTM-65" value="FIN" style="strokeWidth=2;html=1;shape=mxgraph.flowchart.terminator;whiteSpace=wrap;" vertex="1" parent="1">
          <mxGeometry x="340" y="1440" width="100" height="60" as="geometry" />
        </mxCell>
      </root>
    </mxGraphModel>
  </diagram>
</mxfile>
